<svg xmlns="http://www.w3.org/2000/svg" viewBox="0 0 100 100">
  <defs>
    <radialGradient id="stone" cx="38%" cy="32%" r="70%">
      <stop offset="0%" stop-color="#302820"/>
      <stop offset="55%" stop-color="#1a1410"/>
      <stop offset="100%" stop-color="#0c0906"/>
    </radialGradient>
    <radialGradient id="orb" cx="32%" cy="28%" r="65%">
      <stop offset="0%" stop-color="#fff0a0"/>
      <stop offset="30%" stop-color="#f5b800"/>
      <stop offset="75%" stop-color="#b86800"/>
      <stop offset="100%" stop-color="#5a2e00"/>
    </radialGradient>
    <filter id="glow" x="-60%" y="-60%" width="220%" height="220%">
      <feGaussianBlur stdDeviation="3.5" result="b"/>
      <feMerge><feMergeNode in="b"/><feMergeNode in="SourceGraphic"/></feMerge>
    </filter>
  </defs>
  <rect width="100" height="100" rx="15" fill="url(#stone)"/>
  <rect x="3" y="3" width="94" height="94" rx="13" fill="none" stroke="#5a4020" stroke-width="1.5" opacity="0.5"/>
  <path d="M8,22 Q8,8 22,8" fill="none" stroke="#c8900a" stroke-width="2" stroke-linecap="round" opacity="0.7"/>
  <path d="M78,8 Q92,8 92,22" fill="none" stroke="#c8900a" stroke-width="2" stroke-linecap="round" opacity="0.7"/>
  <path d="M8,78 Q8,92 22,92" fill="none" stroke="#c8900a" stroke-width="2" stroke-linecap="round" opacity="0.7"/>
  <path d="M92,78 Q92,92 78,92" fill="none" stroke="#c8900a" stroke-width="2" stroke-linecap="round" opacity="0.7"/>
  <circle cx="30" cy="30" r="13" fill="rgba(60,35,5,0.8)" stroke="#c8900a" stroke-width="1.8"/>
  <circle cx="30" cy="30" r="10" fill="url(#orb)" filter="url(#glow)"/>
  <ellipse cx="26" cy="25" rx="3.5" ry="2.5" fill="rgba(255,255,200,0.5)"/>
  <circle cx="70" cy="30" r="13" fill="rgba(60,35,5,0.8)" stroke="#c8900a" stroke-width="1.8"/>
  <circle cx="70" cy="30" r="10" fill="url(#orb)" filter="url(#glow)"/>
  <ellipse cx="66" cy="25" rx="3.5" ry="2.5" fill="rgba(255,255,200,0.5)"/>
  <circle cx="30" cy="70" r="13" fill="rgba(60,35,5,0.8)" stroke="#c8900a" stroke-width="1.8"/>
  <circle cx="30" cy="70" r="10" fill="url(#orb)" filter="url(#glow)"/>
  <ellipse cx="26" cy="65" rx="3.5" ry="2.5" fill="rgba(255,255,200,0.5)"/>
  <circle cx="70" cy="70" r="13" fill="rgba(60,35,5,0.8)" stroke="#c8900a" stroke-width="1.8"/>
  <circle cx="70" cy="70" r="10" fill="url(#orb)" filter="url(#glow)"/>
  <ellipse cx="66" cy="65" rx="3.5" ry="2.5" fill="rgba(255,255,200,0.5)"/>
</svg>
